<?xml version="1.0" standalone="no"?>
<!DOCTYPE svg PUBLIC "-//W3C//DTD SVG 20010904//EN"
 "http://www.w3.org/TR/2001/REC-SVG-20010904/DTD/svg10.dtd">
<svg version="1.0" xmlns="http://www.w3.org/2000/svg"
 width="200.000000pt" height="200.000000pt" viewBox="0 0 200.000000 200.000000"
 preserveAspectRatio="xMidYMid meet">
<metadata>
Created by potrace 1.14, written by Peter Selinger 2001-2017
</metadata>
<g transform="translate(0.000000,200.000000) scale(0.100000,-0.100000)"
fill="#000000" stroke="none">
<path d="M600 1851 c-64 -20 -115 -60 -154 -122 -20 -32 -27 -62 -28 -115 l0
-41 -55 -7 c-140 -16 -227 -112 -228 -251 0 -58 5 -79 29 -122 65 -117 203
-161 330 -104 l49 21 26 -22 c14 -13 64 -61 111 -108 48 -47 167 -164 266
-261 l179 -175 -19 -33 c-30 -51 -33 -154 -6 -215 43 -101 132 -157 242 -152
130 5 234 103 241 228 1 26 5 49 7 51 3 3 23 7 45 9 45 5 119 37 151 65 12 10
35 38 50 63 25 39 29 55 29 120 0 57 -6 85 -22 115 -25 47 -92 117 -104 109
-5 -3 -9 -1 -9 4 0 15 -70 31 -125 28 -29 -2 -74 -13 -100 -26 -54 -26 -33
-39 -196 120 -59 58 -161 158 -228 223 -93 92 -126 118 -143 115 -13 -2 -24
-11 -26 -22 -4 -19 54 -78 432 -444 l106 -102 31 17 c79 46 96 53 130 53 109
0 189 -80 189 -188 0 -125 -137 -218 -245 -166 -59 28 -88 7 -59 -43 44 -72
11 -184 -68 -236 -38 -25 -50 -28 -105 -25 -51 3 -69 9 -100 35 -82 66 -99
152 -48 239 16 27 30 54 31 61 1 6 -37 50 -84 96 -48 47 -153 150 -234 228
-253 248 -338 329 -346 329 -5 0 -18 -9 -30 -21 -60 -56 -156 -63 -228 -18
-119 76 -109 256 18 318 52 25 115 27 146 5 27 -18 67 -15 67 6 1 8 -7 31 -16
50 -20 39 -19 92 1 141 41 97 157 137 255 88 46 -23 94 -87 96 -129 1 -14 2
-36 3 -49 1 -28 26 -47 50 -38 19 8 22 66 5 131 -14 55 -80 128 -140 155 -45
21 -122 26 -169 12z"/>
<path d="M853 1469 c-27 -10 -31 -47 -7 -56 17 -6 45 6 51 23 2 5 -2 17 -9 26
-10 12 -19 14 -35 7z"/>
</g>
</svg>
